<?xml version="1.0" encoding="UTF-8"?>
<svg width="40px" height="40px" viewBox="0 0 40 40" version="1.1" xmlns="http://www.w3.org/2000/svg" xmlns:xlink="http://www.w3.org/1999/xlink">
    <!-- Generator: sketchtool 53.2 (72643) - https://sketchapp.com -->
    <title>301BF939-B818-4897-B582-56F852CBBD26</title>
    <desc>Created with sketchtool.</desc>
    <g id="Page-1" stroke="none" stroke-width="1" fill="none" fill-rule="evenodd">
        <g id="Contact-Page" transform="translate(-130.000000, -884.000000)">
            <g id="Intro" transform="translate(-5.000000, 631.000000)">
                <g id="Phone" transform="translate(135.000000, 253.000000)">
                    <circle id="Oval" fill="#2D76BB" cx="20" cy="20" r="20"></circle>
                    <g id="phone" transform="translate(9.000000, 9.000000)" fill="#FFFFFF" fill-rule="nonzero">
                        <path d="M9.95150787,4.6389606 C10.3611107,5.04856351 10.3620303,5.71174141 9.95048712,6.12328462 L8.84099925,7.23277249 C8.22797842,7.84579332 8.22910377,8.84278481 8.84472354,9.45840458 L12.5415954,13.1552765 C13.1611998,13.7748808 14.1536646,13.7725637 14.7672275,13.1590007 L15.8767154,12.0495129 C16.286882,11.6393462 16.9502798,11.6377325 17.3610394,12.0484921 L21.4334797,16.1209324 C22.0476956,16.7351484 22.0505422,17.7281426 21.4309378,18.347747 L19.2100966,20.5685882 C17.7792876,21.9993972 15.1818462,22.3756916 13.4448542,21.3362546 C13.4448542,21.3362546 10.6625951,20.1656186 6.27471214,15.7777355 C1.88682914,11.3898526 0.673102828,8.55585406 0.673102828,8.55585406 C-0.338903672,6.80221646 0.00446404619,4.21685115 1.4314118,2.78990342 L3.65225302,0.569062199 C4.26787277,-0.0465575733 5.26099074,-0.0515565129 5.8790676,0.56652035 L9.95150787,4.6389606 L9.95150787,4.6389606 Z M4.76693124,2.41749812 L2.91296886,4.2714605 C2.15504278,5.02938658 2.02678764,6.54614934 2.48783684,7.50858947 C2.48783684,7.50858947 2.66568064,7.8713988 2.77063814,8.0637888 C2.96640767,8.42263976 3.22789761,8.85158806 3.56287478,9.34583959 C4.5529539,10.8066799 5.92985617,12.4697655 7.75626919,14.2961785 C9.58239396,16.1223033 11.2351922,17.4906436 12.6788197,18.466729 C13.1661947,18.7962597 13.587715,19.0520336 13.9389912,19.2421847 C14.1257955,19.3433047 14.5207454,19.5383445 14.5207454,19.5383445 C15.3977626,19.9973331 16.9570466,19.858524 17.7285395,19.0870311 L19.5825019,17.2330688 L16.6193878,14.2699547 L16.2487846,14.6405578 C14.8153152,16.0740273 12.4962181,16.0730132 11.0600384,14.6368335 L7.36316649,10.9399616 C5.93048966,9.50728486 5.92699292,7.18366471 7.3594422,5.75121543 L7.73004535,5.38061223 L4.76693124,2.41749812 L4.76693124,2.41749812 Z" id="Combined-Shape"></path>
                    </g>
                </g>
            </g>
        </g>
    </g>
</svg>