<?xml version="1.0" encoding="UTF-8"?>
<svg width="180px" height="35px" viewBox="0 0 180 35" version="1.1" xmlns="http://www.w3.org/2000/svg" xmlns:xlink="http://www.w3.org/1999/xlink">
    <!-- Generator: sketchtool 53.2 (72643) - https://sketchapp.com -->
    <title>F95A3B2E-7EBB-43C5-81AC-DF314EEB4031</title>
    <desc>Created with sketchtool.</desc>
    <g id="Page-1" stroke="none" stroke-width="1" fill="none" fill-rule="evenodd">
        <g id="Home-Concept-2b" transform="translate(-630.000000, -50.000000)" fill="#2D76BB" fill-rule="nonzero">
            <g id="Header">
                <g id="Interface_logo" transform="translate(630.000000, 50.000000)">
                    <polygon id="Path" points="2 1 2 16 0 16 0 1"></polygon>
                    <polygon id="Path" points="15 16.0422535 15 0 25.7680723 11.4929577 25.7680723 1.03755869 28 1.03755869 28 17 17.2710843 5.50704225 17.2710843 16.0422535"></polygon>
                    <polygon id="Path" points="44.6347826 3.14285714 44.6347826 16 42.4043478 16 42.4043478 3.14285714 39 3.14285714 39 1 48 1 48 3.14285714"></polygon>
                    <polygon id="Path" points="68 3.14285714 62.1923077 3.14285714 62.1923077 6.75396825 67.8461538 6.75396825 67.8461538 8.85714286 62.1923077 8.85714286 62.1923077 13.8571429 68 13.8571429 68 16 60 16 60 1 68 1"></polygon>
                    <path d="M85.2244898,9.59416446 L90,16 L87.1428571,16 L82.7346939,9.87267905 L82.3265306,9.87267905 L82.3265306,16 L80,16 L80,1 L82.7346939,1 C84.7755102,1 86.244898,1.35809019 87.1428571,2.11405836 C88.122449,2.90981432 88.6938776,4.14323607 88.6530612,5.37665782 C88.6938776,6.37135279 88.3673469,7.32625995 87.7142857,8.12201592 C87.1020408,8.91777188 86.2040816,9.43501326 85.2244898,9.59416446 Z M82.3265306,7.88328912 L83.0612245,7.88328912 C85.2653061,7.88328912 86.3673469,7.04774536 86.3673469,5.41644562 C86.3673469,3.90450928 85.3061224,3.10875332 83.1428571,3.10875332 L82.3265306,3.10875332 L82.3265306,7.88328912 Z" id="Shape"></path>
                    <polygon id="Path" points="109 3.14285714 104.12234 3.14285714 104.12234 6.75396825 108.851064 6.75396825 108.851064 8.85714286 104.12234 8.85714286 104.12234 16 102 16 102 1 109 1"></polygon>
                    <path d="M160,1.97131835 L160,4.54620514 C158.872612,3.54699534 157.423114,3.00895929 155.893088,2.97052815 C154.403326,2.932097 152.953828,3.50856419 151.947232,4.58463628 C150.900372,5.62227723 150.296414,7.04422963 150.336678,8.50461318 C150.296414,9.92656559 150.900372,11.3100868 151.947232,12.3477278 C152.994092,13.3853687 154.403326,13.9234048 155.893088,13.9234048 C156.617837,13.9234048 157.302323,13.8081113 157.946544,13.5390933 C158.308919,13.3853687 158.631029,13.2316442 158.912876,13.0394884 C159.275251,12.8089015 159.637625,12.5398835 160,12.2708655 L160,14.9226146 C158.751821,15.6143752 157.302323,15.9986867 155.852824,15.9986867 C153.759105,16.0371178 151.745913,15.2300638 150.296414,13.8465425 C148.806652,12.4630212 147.961112,10.5414639 148.001375,8.58147548 C148.001375,6.77521161 148.685861,5.00737889 149.93404,3.66228878 C151.423802,1.9328872 153.678577,0.933677405 156.054144,1.0105397 C157.463378,0.933677405 158.832349,1.27955772 160,1.97131835 Z" id="Path"></path>
                    <polygon id="Path" points="180 3.14285714 174.192308 3.14285714 174.192308 6.75396825 179.846154 6.75396825 179.846154 8.85714286 174.192308 8.85714286 174.192308 13.8571429 180 13.8571429 180 16 172 16 172 1 180 1"></polygon>
                    <path d="M127.27451,1 L132.019608,10.258216 L146.960784,4.75117371 L147,4.83098592 L119.078431,18 L119,17.9201878 L127.27451,1 Z M124.686275,12.5328638 L124.764706,12.6126761 L129.392157,10.8169014 C128.686275,9.34037559 127.980392,7.90375587 127.235294,6.42723005 L124.686275,12.5328638 Z" id="Shape"></path>
                    <polygon id="Path" points="132.275229 16 130.183486 16 130 16 133.155963 14 134 16"></polygon>
                    <g id="Group" transform="translate(33.000000, 25.000000)">
                        <g>
                            <path d="M6.58071429,7.48 L2.73535714,7.48 L1.74428571,9.68 L0.2775,9.68 L4.7175,0.08 L8.99892857,9.68 L7.53214286,9.68 L6.58071429,7.48 Z M6.02571429,6.2 L4.67785714,3.12 L3.29035714,6.2 L6.02571429,6.2 Z" id="Shape"></path>
                            <polygon id="Path" points="19.8214286 1.92 16.2139286 1.92 16.2139286 4.08 19.7025 4.08 19.7025 5.36 16.2139286 5.36 16.2139286 8.4 19.8214286 8.4 19.8214286 9.68 14.8660714 9.68 14.8660714 0.64 19.8214286 0.64"></polygon>
                        </g>
                        <path d="M31.4367857,2 L30.3267857,2.64 C30.1285714,2.28 29.9303571,2.04 29.7321429,1.92 C29.5339286,1.8 29.2960714,1.72 28.9789286,1.72 C28.6221429,1.72 28.305,1.84 28.0275,2.04 C27.7896429,2.24 27.6707143,2.52 27.6707143,2.84 C27.6707143,3.28 27.9878571,3.64 28.6617857,3.92 L29.5735714,4.28 C30.2871429,4.56 30.8421429,4.92 31.1592857,5.36 C31.4764286,5.8 31.6746429,6.32 31.6746429,6.92 C31.6746429,7.76 31.3971429,8.44 30.8421429,9 C30.2871429,9.56 29.6132143,9.84 28.7807143,9.84 C27.9878571,9.84 27.3535714,9.6 26.8382143,9.16 C26.3228571,8.68 26.0453571,8.04 25.8867857,7.2 L27.2742857,6.88 C27.3535714,7.4 27.4328571,7.76 27.5914286,8 C27.8689286,8.4 28.2653571,8.6 28.8203571,8.6 C29.2564286,8.6 29.5735714,8.44 29.8907143,8.16 C30.2078571,7.88 30.3267857,7.52 30.3267857,7.08 C30.3267857,6.92 30.2871429,6.76 30.2475,6.6 C30.2078571,6.44 30.1285714,6.32 30.0096429,6.2 C29.8907143,6.08 29.7717857,5.96 29.6132143,5.84 C29.4546429,5.72 29.2564286,5.64 29.0185714,5.52 L28.1464286,5.16 C26.9175,4.64 26.3228571,3.88 26.3228571,2.88 C26.3228571,2.2 26.5607143,1.64 27.0760714,1.16 C27.5914286,0.68 28.2257143,0.48 28.9789286,0.48 C30.0492857,0.44 30.8421429,0.96 31.4367857,2 Z" id="Path"></path>
                        <g transform="translate(37.264286, 0.400000)" id="Path">
                            <polygon points="3.40928571 1.52 3.40928571 9.28 2.06142857 9.28 2.06142857 1.52 0 1.52 0 0.24 5.47071429 0.24 5.47071429 1.52"></polygon>
                            <polygon points="12.8046429 3.76 16.6896429 3.76 16.6896429 0.24 18.0375 0.24 18.0375 9.28 16.65 9.28 16.65 5.04 12.765 5.04 12.765 9.28 11.4171429 9.28 11.4171429 0.24 12.765 0.24 12.765 3.76"></polygon>
                            <polygon points="29.8510714 1.52 26.2435714 1.52 26.2435714 3.68 29.7321429 3.68 29.7321429 4.96 26.2435714 4.96 26.2435714 8 29.8510714 8 29.8510714 9.28 24.8957143 9.28 24.8957143 0.24 29.8510714 0.24"></polygon>
                            <polygon points="38.8896429 1.52 38.8896429 9.28 37.5417857 9.28 37.5417857 1.52 35.4803571 1.52 35.4803571 0.24 40.9510714 0.24 40.9510714 1.52"></polygon>
                            <polygon points="48.2453571 0.24 48.2453571 9.28 46.8975 9.28 46.8975 0.24"></polygon>
                            <path d="M61.8032143,0.72 L61.8032143,2.32 C61.0103571,1.64 60.2175,1.32 59.385,1.32 C58.4732143,1.32 57.6803571,1.64 57.0460714,2.32 C56.4117857,3 56.0946429,3.8 56.0946429,4.76 C56.0946429,5.72 56.4117857,6.52 57.0460714,7.16 C57.6803571,7.8 58.4732143,8.12 59.385,8.12 C59.8607143,8.12 60.2571429,8.04 60.6139286,7.88 C60.8121429,7.8 61.0103571,7.68 61.2085714,7.56 C61.4067857,7.44 61.605,7.28 61.8428571,7.08 L61.8428571,8.8 C61.05,9.24 60.2571429,9.48 59.385,9.48 C58.1164286,9.48 57.0064286,9.04 56.0946429,8.12 C55.1828571,7.2 54.7467857,6.12 54.7467857,4.84 C54.7467857,3.68 55.1432143,2.68 55.8964286,1.76 C56.8082143,0.64 58.0371429,0.12 59.5039286,0.12 C60.2571429,0.04 61.05,0.28 61.8032143,0.72 Z"></path>
                            <path d="M73.3392857,1.6 L72.2292857,2.24 C72.0310714,1.88 71.8328571,1.64 71.6346429,1.52 C71.4364286,1.4 71.1985714,1.32 70.8814286,1.32 C70.5246429,1.32 70.2075,1.44 69.93,1.64 C69.6921429,1.84 69.5732143,2.12 69.5732143,2.44 C69.5732143,2.88 69.8903571,3.24 70.5642857,3.52 L71.4760714,3.88 C72.1896429,4.16 72.7446429,4.52 73.0617857,4.96 C73.3789286,5.4 73.5771429,5.92 73.5771429,6.52 C73.5771429,7.36 73.2996429,8.04 72.7446429,8.6 C72.1896429,9.16 71.5157143,9.44 70.6832143,9.44 C69.8903571,9.44 69.2560714,9.2 68.7407143,8.76 C68.2253571,8.28 67.9478571,7.64 67.7892857,6.8 L69.1767857,6.48 C69.2560714,7 69.3353571,7.36 69.4939286,7.6 C69.7714286,8 70.1678571,8.2 70.7228571,8.2 C71.1589286,8.2 71.4760714,8.04 71.7932143,7.76 C72.1103571,7.48 72.2292857,7.12 72.2292857,6.68 C72.2292857,6.52 72.1896429,6.36 72.15,6.2 C72.1103571,6.04 72.0310714,5.92 71.9121429,5.8 C71.7932143,5.68 71.6742857,5.56 71.5157143,5.44 C71.3571429,5.32 71.1589286,5.24 70.9210714,5.12 L70.0489286,4.76 C68.82,4.24 68.2253571,3.48 68.2253571,2.48 C68.2253571,1.8 68.4632143,1.24 68.9785714,0.76 C69.4939286,0.28 70.1282143,0.08 70.8814286,0.08 C71.9517857,0.04 72.7446429,0.56 73.3392857,1.6 Z"></path>
                        </g>
                    </g>
                </g>
            </g>
        </g>
    </g>
</svg>