<?xml version="1.0" encoding="UTF-8"?>
<svg width="40px" height="40px" viewBox="0 0 40 40" version="1.1" xmlns="http://www.w3.org/2000/svg" xmlns:xlink="http://www.w3.org/1999/xlink">
    <!-- Generator: sketchtool 53.2 (72643) - https://sketchapp.com -->
    <title>E8C14887-97A1-4357-A933-B806270AD70B</title>
    <desc>Created with sketchtool.</desc>
    <g id="Page-1" stroke="none" stroke-width="1" fill="none" fill-rule="evenodd">
        <g id="Contact-Page" transform="translate(-130.000000, -944.000000)">
            <g id="Intro" transform="translate(-5.000000, 631.000000)">
                <g id="Email" transform="translate(135.000000, 313.000000)">
                    <circle id="Oval" fill="#2D76BB" cx="20" cy="20" r="20"></circle>
                    <g id="mail-01" transform="translate(8.000000, 11.000000)" fill="#FFFFFF" fill-rule="nonzero">
                        <path d="M2.18280545,0 L21.8171945,0 C23.0227247,0 24,0.973770327 24,2.17646105 L24,17.4599026 C24,18.6619288 23.0219503,19.6363636 21.8171945,19.6363636 L2.18280545,19.6363636 C0.977275287,19.6363636 0,18.6625933 0,17.4599026 L0,2.17646105 C0,0.9744348 0.978049762,0 2.18280545,0 Z M20.2755265,17.4546686 L14.1818182,11.3609602 L12.7713892,12.7713892 C12.3453627,13.1974157 11.6546373,13.1974157 11.2286108,12.7713892 L9.81818182,11.3609602 L3.72109148,17.4580506 C7.38793669,17.4559831 16.6062656,17.4549913 20.2755265,17.4546686 Z M21.817895,15.9114802 C21.8183984,12.984151 21.8183054,6.65576356 21.8182898,3.72454898 L15.7245966,9.81818182 L21.817895,15.9114802 Z M2.18171023,15.9118147 L8.2754034,9.81818182 L2.18210503,3.72488345 C2.18160165,6.6522126 2.18169455,12.9806001 2.18171023,15.9118147 Z M20.283827,2.17831027 C16.6186728,2.18038064 7.38711349,2.18137312 3.71954556,2.18169548 L12,10.4932592 L20.283827,2.17831027 Z" id="Combined-Shape"></path>
                    </g>
                </g>
            </g>
        </g>
    </g>
</svg>