<?xml version="1.0" encoding="UTF-8"?>
<svg width="120px" height="120px" viewBox="0 0 120 120" version="1.1" xmlns="http://www.w3.org/2000/svg" xmlns:xlink="http://www.w3.org/1999/xlink">
    <!-- Generator: sketchtool 53.2 (72643) - https://sketchapp.com -->
    <title>A45A13E4-A56E-46E8-B2DB-8CDAA577D4E7</title>
    <desc>Created with sketchtool.</desc>
    <g id="Page-1" stroke="none" stroke-width="1" fill="none" fill-rule="evenodd">
        <g id="Courses-Single" transform="translate(-170.000000, -1955.000000)">
            <g id="Group-2" transform="translate(140.000000, 1915.000000)">
                <g id="Certificate-icon" transform="translate(30.000000, 40.000000)">
                    <circle id="Oval" fill="#F5F5F5" cx="60" cy="60" r="60"></circle>
                    <g id="28-certificate-degree.2" transform="translate(34.000000, 28.000000)" fill-rule="nonzero">
                        <path d="M45,14 L44,14 L44,12 L45,12 C47.757,12 50,9.757 50,7 C50,4.243 47.757,2 45,2 L45,0 C48.86,0 52,3.141 52,7 C52,10.859 48.86,14 45,14 Z" id="Path" fill="#222829"></path>
                        <g id="Group" transform="translate(15.000000, 12.000000)" fill="#1E568B">
                            <rect id="Rectangle" x="4" y="0" width="2" height="2"></rect>
                            <rect id="Rectangle" x="8" y="0" width="2" height="2"></rect>
                            <rect id="Rectangle" x="0" y="0" width="2" height="2"></rect>
                        </g>
                        <g id="Group" transform="translate(8.000000, 18.000000)" fill="#1E568B">
                            <rect id="Rectangle" x="0" y="0" width="23" height="2"></rect>
                            <rect id="Rectangle" x="0" y="4" width="23" height="2"></rect>
                            <rect id="Rectangle" x="0" y="8" width="23" height="2"></rect>
                            <rect id="Rectangle" x="0" y="12" width="23" height="2"></rect>
                            <rect id="Rectangle" x="0" y="16" width="23" height="2"></rect>
                        </g>
                        <path d="M39,58 L27,58 L27,56 L38,56 L38,7 C38,5.043 38.807,3 40.105,2 L7,2 C4.243,2 2,4.243 2,7 L2,56 L13,56 L13,58 L1,58 C0.448,58 0,57.553 0,57 L0,7 C0,3.141 3.14,0 7,0 L45,0 C45.552,0 46,0.447 46,1 C46,1.553 45.552,2 45,2 C42.243,2 40,4.243 40,7 L40,57 C40,57.553 39.552,58 39,58 Z" id="Path" fill="#1E568B"></path>
                        <path d="M24,64 C23.74,64 23.484,63.898 23.293,63.707 L20,60.414 L16.707,63.707 C16.42,63.993 15.991,64.079 15.617,63.924 C15.244,63.77 15,63.404 15,63 L15,52 L17,52 L17,60.586 L19.293,58.293 C19.684,57.902 20.316,57.902 20.707,58.293 L23,60.586 L23,52 L25,52 L25,63 C25,63.404 24.756,63.77 24.383,63.924 C24.259,63.976 24.129,64 24,64 Z" id="Path" fill="#1E568B"></path>
                        <path d="M20,54 C16.14,54 13,50.859 13,47 C13,43.141 16.14,40 20,40 C23.86,40 27,43.141 27,47 C27,50.859 23.86,54 20,54 Z M20,42 C17.243,42 15,44.243 15,47 C15,49.757 17.243,52 20,52 C22.757,52 25,49.757 25,47 C25,44.243 22.757,42 20,42 Z" id="Shape" fill="#1E568B"></path>
                        <rect id="Rectangle" fill="#1E568B" x="8" y="46" width="2" height="2"></rect>
                        <rect id="Rectangle" fill="#1E568B" x="29" y="46" width="2" height="2"></rect>
                        <rect id="Rectangle" fill="#1E568B" x="42" y="12" width="2" height="35"></rect>
                    </g>
                </g>
            </g>
        </g>
    </g>
</svg>