<?xml version="1.0" encoding="UTF-8"?>
<svg width="90px" height="90px" viewBox="0 0 90 90" version="1.1" xmlns="http://www.w3.org/2000/svg" xmlns:xlink="http://www.w3.org/1999/xlink">
    <!-- Generator: sketchtool 53.2 (72643) - https://sketchapp.com -->
    <title>E86A6B22-5D3F-407C-ABF6-D84F35AF32D8</title>
    <desc>Created with sketchtool.</desc>
    <g id="Page-1" stroke="none" stroke-width="1" fill="none" fill-rule="evenodd">
        <g id="Home-Concept-2b" transform="translate(-975.000000, -1013.000000)">
            <g id="Image-/-Video" transform="translate(140.000000, 893.000000)">
                <g id="Video-Panel" transform="translate(600.000000, 0.000000)">
                    <g id="Play" transform="translate(235.000000, 120.000000)">
                        <circle id="Oval" fill="#1E568B" cx="45" cy="45" r="45"></circle>
                        <path d="M51.7903276,33.9611085 L63.9760781,54.1546378 C64.8321166,55.573216 64.3760882,57.4171571 62.95751,58.2731957 C62.4897657,58.5554552 61.9538256,58.7046327 61.4075151,58.7046327 L56.9912959,58.7046327 L37.0360142,58.7046327 C35.37916,58.7046327 34.0360142,57.3614869 34.0360142,55.7046327 C34.0360142,55.1583222 34.1851917,54.6223821 34.4674512,54.1546378 L46.6532017,33.9611085 C47.5092402,32.5425303 49.3531814,32.0865019 50.7717596,32.9425404 C51.1889655,33.1943026 51.5385654,33.5439026 51.7903276,33.9611085 Z" id="Triangle" fill="#FFFFFF" transform="translate(49.221988, 45.607645) rotate(-270.000000) translate(-49.221988, -45.607645) "></path>
                    </g>
                </g>
            </g>
        </g>
    </g>
</svg>