<?xml version="1.0" encoding="UTF-8"?>
<svg width="120px" height="120px" viewBox="0 0 120 120" version="1.1" xmlns="http://www.w3.org/2000/svg" xmlns:xlink="http://www.w3.org/1999/xlink">
    <!-- Generator: sketchtool 53.2 (72643) - https://sketchapp.com -->
    <title>35284CB8-F95A-4AF5-B79D-1EEC4BC984D2</title>
    <desc>Created with sketchtool.</desc>
    <g id="Page-1" stroke="none" stroke-width="1" fill="none" fill-rule="evenodd">
        <g id="Courses-Single" transform="translate(-170.000000, -1674.000000)">
            <g id="Group-2" transform="translate(140.000000, 1634.000000)">
                <g id="Support-learning-icon" transform="translate(30.000000, 40.000000)">
                    <circle id="Oval" fill="#F5F5F5" cx="60" cy="60" r="60"></circle>
                    <g id="05-personal-development.2" transform="translate(30.000000, 28.000000)" fill="#1E568B" fill-rule="nonzero">
                        <path d="M31,64 C22.589,64 16,49.944 16,32 C16,24.934 17.035,18.25 18.994,12.669 L20.881,13.331 C18.996,18.702 18,25.157 18,32 C18,48.262 23.953,62 31,62 C38.047,62 44,48.262 44,32 C44,15.738 38.047,2 31,2 C29.569,2 28.149,2.567 26.782,3.686 L25.515,2.138 C27.25,0.719 29.095,0 31,0 C39.411,0 46,14.056 46,32 C46,49.944 39.411,64 31,64 Z" id="Path"></path>
                        <path d="M47.801,52.699 C41.079,52.699 32.302,50.072 23.5,44.991 C16.208,40.781 10.084,35.527 6.254,30.197 C2.263,24.641 1.209,19.599 3.287,16 C7.493,8.716 22.961,10.038 38.5,19.009 C44.661,22.566 49.957,26.835 53.817,31.352 L52.296,32.651 C48.582,28.304 43.465,24.185 37.5,20.74 C23.417,12.611 8.542,10.897 5.02,17 C3.382,19.836 4.424,24.221 7.879,29.03 C11.546,34.135 17.449,39.188 24.5,43.259 C38.583,51.389 53.456,53.102 56.98,47 C57.623,45.887 57.865,44.55 57.701,43.025 L59.689,42.81 C59.9,44.766 59.571,46.511 58.712,47.999 C56.889,51.158 52.946,52.699 47.801,52.699 Z" id="Path"></path>
                        <path d="M14.199,52.699 C9.053,52.699 5.111,51.159 3.287,48 C2.427,46.509 2.099,44.763 2.31,42.808 L4.298,43.024 C4.134,44.547 4.376,45.885 5.02,47 C8.541,53.101 23.417,51.389 37.5,43.259 C44.551,39.188 50.454,34.135 54.121,29.03 C57.576,24.221 58.618,19.836 56.98,17 C53.457,10.897 38.582,12.61 24.5,20.741 C18.534,24.186 13.418,28.304 9.706,32.65 L8.185,31.35 C12.044,26.834 17.339,22.566 23.5,19.009 C39.039,10.038 54.507,8.716 58.713,16 C60.791,19.599 59.737,24.641 55.746,30.197 C51.916,35.528 45.792,40.781 38.5,44.991 C29.699,50.072 20.921,52.699 14.199,52.699 Z" id="Path"></path>
                        <path d="M4,44 C1.794,44 0,42.206 0,40 C0,37.794 1.794,36 4,36 C6.206,36 8,37.794 8,40 C8,42.206 6.206,44 4,44 Z M4,38 C2.897,38 2,38.897 2,40 C2,41.103 2.897,42 4,42 C5.103,42 6,41.103 6,40 C6,38.897 5.103,38 4,38 Z" id="Shape"></path>
                        <path d="M58,44 C55.794,44 54,42.206 54,40 C54,37.794 55.794,36 58,36 C60.206,36 62,37.794 62,40 C62,42.206 60.206,44 58,44 Z M58,38 C56.897,38 56,38.897 56,40 C56,41.103 56.897,42 58,42 C59.103,42 60,41.103 60,40 C60,38.897 59.103,38 58,38 Z" id="Shape"></path>
                        <path d="M24,9 C21.794,9 20,7.206 20,5 C20,2.794 21.794,1 24,1 C26.206,1 28,2.794 28,5 C28,7.206 26.206,9 24,9 Z M24,3 C22.897,3 22,3.897 22,5 C22,6.103 22.897,7 24,7 C25.103,7 26,6.103 26,5 C26,3.897 25.103,3 24,3 Z" id="Shape"></path>
                        <g id="Group" transform="translate(21.000000, 21.000000)">
                            <path d="M2,19 L0,19 C0,13.584 4.471,11.408 6.835,11.014 L7.164,12.987 C6.957,13.022 2,13.942 2,19 Z" id="Path"></path>
                            <path d="M20,19 L18,19 C18,13.906 13.046,13.021 12.835,12.986 L13.164,11.013 C15.529,11.408 20,13.584 20,19 Z" id="Path"></path>
                            <path d="M10,14 C6.58,14 4,10.776 4,6.5 C4,3.474 4.682,0 10,0 C15.318,0 16,3.474 16,6.5 C16,10.776 13.42,14 10,14 Z M10,2 C6.972,2 6,3.094 6,6.5 C6,9.166 7.402,12 10,12 C12.598,12 14,9.166 14,6.5 C14,3.094 13.028,2 10,2 Z" id="Shape"></path>
                        </g>
                    </g>
                </g>
            </g>
        </g>
    </g>
</svg>