<?xml version="1.0"?>
<svg xmlns="http://www.w3.org/2000/svg" height="512px" viewBox="0 0 512.00049 512.00049" width="512px" class=""><g><path d="m499.140625 63.230469-50.371094-50.371094c-20.699219-17.144531-41.398437-17.144531-62.097656 0-15.910156 15.910156-17.023437 41.089844-3.363281 58.3125l-52.585938 52.589844-53.664062-53.664063c-5.765625-5.765625-15.117188-5.765625-20.886719 0-5.769531 5.769532-5.769531 15.121094 0 20.886719l17.03125 17.03125-209.347656 209.347656c-3.492188 3.492188-5.007813 8.5-4.039063 13.339844l16.761719 83.832031-72.253906 72.253906c-5.765625 5.765626-5.765625 15.117188 0 20.886719 6.964843 5.765625 13.925781 5.765625 20.886719 0l72.253906-72.253906 83.832031 16.765625c4.78125.933594 9.230469-.414062 13.339844-4.039062l209.347656-209.351563 17.03125 17.03125c6.960937 5.769531 13.925781 5.769531 20.886719 0 5.765625-5.765625 5.765625-15.117187 0-20.886719l-53.664063-53.660156 52.589844-52.589844c19.863281 13.671875 39.300781 12.550782 58.3125-3.363281 8.292969-8.292969 12.859375-19.320313 12.859375-31.050781 0-11.726563-4.566406-22.753906-12.859375-31.046875zm-319.800781 358.441406-74.175782-14.835937-14.835937-74.171876 38.917969-38.917968 89.007812 89.007812zm169.695312-169.699219-26.1875-26.1875c-5.765625-5.769531-15.117187-5.769531-20.886718 0-5.765626 5.765625-5.765626 15.117188 0 20.886719l26.1875 26.1875-34.058594 34.0625-26.191406-26.1875c-5.765626-5.769531-15.117188-5.769531-20.886719 0-5.765625 5.765625-5.765625 15.117187 0 20.886719l26.191406 26.1875-34.0625 34.0625-89.011719-89.011719 143.957032-143.957031 89.011718 89.011718zm18.316406-91.578125-15.742187-15.746093 52.375-52.378907 15.746094 15.746094zm110.902344-55.953125c-5.605468 5.601563-14.722656 5.601563-20.324218 0l-50.371094-50.371094c-5.601563-5.601562-5.601563-14.71875 0-20.324218 6.773437-5.609375 13.550781-5.609375 20.324218 0l50.367188 50.371094c5.613281 6.773437 5.613281 13.546874.003906 20.324218zm0 0" data-original="#000000" class="active-path" data-old_color="##1E558" fill="#1E5589"/></g> </svg>
